<svg xmlns="http://www.w3.org/2000/svg" viewBox="0 0 702.534 359.224" height="383.172" width="749.37"><defs><clipPath id="A"><path d="M0 0h240.945v155.906H0z"/></clipPath><clipPath id="B"><path d="M0 0h240.945v155.906H0z"/></clipPath><clipPath id="C"><path d="M0 0h240.945v155.906H0z"/></clipPath></defs><g transform="matrix(6.158229 0 0 -6.158229 -681.71406 907.7389)"><path d="M163.36 89.072h15.247v58.33H163.36z" fill="#fff200"/><path d="M110.693 120.2v22.347h9.537v-2.344h-7v-7.48h6.08v-2.344h-6.08V120.2zm20.922 0l-1.024 4.977h-4.96l-.993-4.977h-2.432l4.737 22.347h2.368l4.8-22.347zm-3.584 17.756l-.928-5.202-1.056-5.234h4.096l-1.088 5.3-.896 5.137z" fill="#231f20"/><g clip-path="url(#A)"><path d="M142.48 142.73c1.728 0 2.98-.47 3.76-1.413s1.17-2.172 1.17-3.692l-2.53-.45c.02.985-.155 1.766-.528 2.344s-1.008.867-1.904.867c-.512 0-.928-.118-1.248-.353a2.5 2.5 0 0 1-.752-.883c-.182-.353-.304-.744-.368-1.172s-.096-.835-.096-1.22v-11.27c0-.32.032-.67.096-1.044s.186-.717.368-1.027a2.44 2.44 0 0 1 .736-.787c.31-.214.72-.32 1.232-.32.832 0 1.445.257 1.84.77s.603 1.327.624 2.44l2.593-.45c-.044-1.605-.475-2.857-1.297-3.756s-2.053-1.35-3.696-1.35c-1.685 0-2.944.47-3.776 1.413s-1.248 2.27-1.248 3.98v11.046a12.91 12.91 0 0 0 .208 2.327c.138.76.39 1.434.752 2.023s.874 1.065 1.536 1.43 1.504.546 2.528.546" fill="#231f20"/></g><path d="M157.81 140.192V120.19h-2.528v20.003h-3.777v2.344h10.08v-2.344z" fill="#231f20"/><g clip-path="url(#B)" fill="#231f20"><path d="M175.475 124.266c0-.707-.123-1.327-.368-1.862s-.576-.985-.992-1.35-.896-.637-1.44-.818a5.36 5.36 0 0 0-1.712-.274 5.36 5.36 0 0 0-1.713.274c-.543.182-1.024.454-1.44.818s-.747.813-.992 1.35-.368 1.155-.368 1.862v14.096c0 .706.123 1.332.368 1.878a3.91 3.91 0 0 0 .992 1.364c.416.364.896.643 1.44.835a5.11 5.11 0 0 0 1.713.29c1.322 0 2.405-.374 3.248-1.124s1.264-1.83 1.264-3.242zm-6.497 3.853l3.97 9.12v1.22c0 .556-.187 1.006-.56 1.35s-.848.513-1.424.513-1.05-.17-1.425-.513-.56-.793-.56-1.35zm3.97 6.07l-3.97-9.023v-.995c0-.557.187-1.007.56-1.35s.85-.513 1.425-.513 1.05.17 1.424.513.56.792.56 1.35zm16.645-14l-3.155 9.793h-2.4V120.2H181.5v22.347h4.88c1.807 0 3.137-.524 3.988-1.573s1.276-2.644 1.276-4.784c0-1.284-.192-2.42-.574-3.404s-1.147-1.745-2.294-2.28l3.38-10.307zm-.456 16c0 .6-.044 1.145-.13 1.637s-.25.915-.496 1.27-.57.626-.976.82-.928.288-1.568.288h-1.92v-7.866h2.144c.576 0 1.056.1 1.44.273a2.17 2.17 0 0 1 .912.786c.224.343.38.75.464 1.22s.13.996.13 1.574"/></g><path d="M201.4 133.3l2.895 9.247h2.657L202.6 129.63v-9.472h-2.528v9.472l-4.352 12.907h2.656l1.632-5.233 1.263-4.014zm-43.883-24.06l-1.76-4.624-2.304-5.426h-1.185l-2.304 5.426-1.76 4.624h-.128V93.754h-2.528V116.1h2.56l2.656-6.967 2.048-5.46h.096l2.113 5.62 2.592 6.807h2.592V93.754h-2.528v15.476zm12.76-15.476v19.682l-3.232-2.6v2.698l3.168 2.568h2.592V93.754zm13.77 15.284V93.754h-2.53v22.348h2.4l4.608-11.335 1.536-4.077.13.032v15.38h2.527V93.754h-2.368l-4.608 11.238-1.6 4.046zm15.17-15.284V116.1h9.537v-2.344h-7v-7.48h6.08v-2.344h-6.08v-7.834h7v-2.344z" fill="#231f20"/><g clip-path="url(#C)"><path d="M222.204 93.754l-3.155 9.793h-2.4v-9.793h-2.528V116.1h4.88c1.807 0 3.136-.524 3.988-1.573s1.276-2.644 1.276-4.784c0-1.284-.192-2.42-.574-3.404s-1.148-1.745-2.295-2.28l3.38-10.307zm-.457 16c0 .6-.043 1.145-.128 1.637s-.25.915-.496 1.27-.57.626-.976.82-.928.288-1.568.288h-1.92v-7.866h2.144c.576 0 1.056.09 1.44.273s.688.444.912.786.38.75.464 1.22.128.996.128 1.574" fill="#231f20"/></g></g></svg>